<?xml version="1.0" standalone="no"?>
<!DOCTYPE svg PUBLIC "-//W3C//DTD SVG 1.1//EN" "http://www.w3.org/Graphics/SVG/1.1/DTD/svg11.dtd" >
<svg xmlns="http://www.w3.org/2000/svg" xmlns:svg="http://www.w3.org/2000/svg" xmlns:xlink="http://www.w3.org/1999/xlink" viewBox="0 0 2048 2048"><path d="M1551.454 1651.013Q1632.022 1665.074 1724.587 1649.649Q1912.776 1644.649 1916.247 1811.561Q2110.62 1775.224 2032.287 1828.482Q2109.425 1983.165 1966.702 1905.611Q2052.65 2081.562 1983.672 1992.431Q2010.001 2029.764 1944.441 2017.094Q1825.03 1924.066 1838.244 1829.118Q1796.029 1838.063 1725.279 1799.912Q1588.822 1780.701 1474.608 1660.227ZM1657.702 861.396H1357.827V957.241H1587.291ZM1051.14 210.096L1504.462 211.57Q1477.071 244.029 1362.754 330.856Q1307.981 305.48 1351.878 463.943Q1352.039 323.136 1254.651 411.512H1720.62L1832.403 153.36Q1814.58 263.116 1859.573 195.028Q1836.976 256.476 1864.74 405.055Q1942.136 278.685 1906.503 370.393Q2128.983 366.818 2157.981 374.322Q2159.578 415.02 2084.472 387.579Q2090.798 579.437 2076.164 404.328H1255.956L1203.436 644.366L1452.31 602.072Q1459.629 578.046 1461.369 592.885Q1324.716 546.042 1366.868 555.037V708.812H1530.511V600.716L1980.733 482.712Q1811.843 577.418 1829.409 568.4Q1876.609 565.165 1784.525 536.009V752.122L1834.872 579.339Q1996.925 669.63 1870.022 672.005Q2003.674 747.137 2008.525 799.126Q2094.221 771.916 2058.889 749.796Q2144.499 924.969 2047.679 929.13H1903.972V1593.49H1812.266L1982.225 1444.054Q1872.704 1368.763 2045.691 1397.683Q2001.378 1533.859 2060.366 1432.186Q2155.545 1421.276 2066.102 1654.196Q2034.782 1547.731 2018.526 1503.11H1346.387L1522.51 1795.101Q1517.43 1827.13 1501.248 1755.95Q1486.613 1794.308 1556.529 1767.814Q1399.438 1952.742 1244.179 1864.522Q1025.129 2121.432 766.969 2163.67L795.449 2022.488Q856.982 2022.129 923.763 1820.653Q1131.207 1902.713 1142.925 1783.292Q1219.878 1735.991 1136.28 1603.359H981.64L887.078 1485.757H1106.923V839.538H1046.531L990.063 737.738H1172.891V678.049Q1025.967 728.66 923.286 745.706Q905.827 804.346 982.204 780.698L840.526 688.222Q905.456 680.29 849.794 719.696Q906.357 667.474 1018.709 674.413H720.445Q665.857 691.309 632.442 755.076Q708.89 825.734 526.255 966.955H703.424L913.248 842.745L1089.202 1081.546Q947.148 926.025 1116.908 940.09Q1053.6 1103.606 1035.31 952.047Q1057.411 1300.226 921.191 1518.317Q878.973 1579.172 884.439 1730.39Q976.818 1855.605 808.439 1942.19Q912.788 1932.672 767.324 2038.851Q608.258 2095.548 548.475 2019.07Q496.115 1990.178 502.994 2005.535Q533.832 1842.905 567.615 1963.402Q579.791 1771.053 489.404 1734.336Q346.374 1848.358 421.004 1850.725L310.984 1809.547Q443.238 1702.691 477.313 1678.229Q611.196 1782.623 468.122 1745.794Q602.431 1694.323 550.058 1686.061Q608.227 1750.657 666.26 1595.701Q684.463 1593.89 709.6 1474.09Q607.364 1315.753 773.078 1037.944H668.868Q590.845 1242.374 558.523 1316.558Q546.198 1579.005 356.359 1759.566Q295.911 1859.038 137.871 1995.86L39.686 2122.153Q187.078 1921.663 344.522 1668.467Q256.512 1450.755 359.275 1066.336Q437.28 951.722 410.215 560.478H107.804L52.876 493.137H327.731V177.536L723.855 231.207Q830.713 191.7 689.247 168.45Q759.63 146.393 726.476 179.399V642.936L910.027 369.299L945.551 511.048Q1080.366 455.149 1047.045 273.824Q1161.322 253.109 1046.121 133.007ZM1513.039 1567.696V1395.111H1329.497V1510.803ZM1604.944 999.615H1299.254V1304.208H1653.861Z" fill="black"></path></svg>