<?xml version="1.0" standalone="no"?>
<!DOCTYPE svg PUBLIC "-//W3C//DTD SVG 1.1//EN" "http://www.w3.org/Graphics/SVG/1.1/DTD/svg11.dtd" >
<svg xmlns="http://www.w3.org/2000/svg" xmlns:svg="http://www.w3.org/2000/svg" xmlns:xlink="http://www.w3.org/1999/xlink" viewBox="0 0 2048 2048"><path d="M1447.5 1539.0Q1628.5 1548.0 1741.5 1591.5Q1854.5 1635.0 1911.5 1695.5Q1968.5 1756.0 1979.0 1817.5Q1989.5 1879.0 1963.5 1925.0Q1937.5 1971.0 1885.0 1986.0Q1832.5 2001.0 1765.5 1967.0Q1734.5 1893.0 1680.0 1816.5Q1625.5 1740.0 1560.0 1671.5Q1494.5 1603.0 1431.5 1553.0ZM1484.5 750.0H1308.5V943.0H1484.5ZM1019.5 46.0 1398.5 179.0Q1381.5 223.0 1312.5 220.0Q1291.5 255.0 1267.0 288.5Q1242.5 322.0 1218.5 353.0H1572.5L1720.5 148.0Q1720.5 148.0 1747.5 170.5Q1774.5 193.0 1816.5 228.5Q1858.5 264.0 1904.0 303.5Q1949.5 343.0 1986.5 378.0Q1981.5 394.0 1965.0 402.0Q1948.5 410.0 1926.5 410.0H1167.5L1101.5 474.0L1365.5 498.0Q1362.5 515.0 1351.0 527.0Q1339.5 539.0 1308.5 545.0V693.0H1484.5V470.0L1820.5 498.0Q1818.5 517.0 1807.0 529.0Q1795.5 541.0 1763.5 545.0V693.0L1847.5 574.0Q1847.5 574.0 1872.5 597.5Q1897.5 621.0 1931.0 654.5Q1964.5 688.0 1990.5 718.0Q1984.5 750.0 1939.5 750.0H1763.5V1451.0H1779.5L1869.5 1305.0Q1869.5 1305.0 1897.5 1333.5Q1925.5 1362.0 1962.5 1401.5Q1999.5 1441.0 2027.5 1475.0Q2021.5 1508.0 1976.5 1508.0H1171.5L1464.5 1688.0Q1456.5 1702.0 1439.0 1709.5Q1421.5 1717.0 1386.5 1711.0Q1271.5 1803.0 1095.5 1881.0Q919.5 1959.0 722.5 1998.0L708.5 1975.0Q801.5 1916.0 888.0 1835.0Q974.5 1754.0 1043.5 1668.5Q1112.5 1583.0 1154.5 1508.0H880.5L864.5 1451.0H1046.5V750.0H915.5L898.5 693.0H1046.5V521.0Q992.5 562.0 936.5 597.5Q880.5 633.0 821.5 660.0L800.5 644.0Q814.5 621.0 829.5 595.0Q844.5 569.0 857.5 539.0H554.5Q551.5 616.0 546.5 693.0Q541.5 770.0 534.5 849.0H608.5L745.5 713.0L976.5 912.0Q965.5 926.0 945.0 936.0Q924.5 946.0 890.5 951.0Q882.5 1192.0 871.0 1356.0Q859.5 1520.0 841.0 1624.5Q822.5 1729.0 793.5 1790.5Q764.5 1852.0 722.5 1887.0Q621.5 1973.0 460.5 1973.0Q460.5 1910.0 454.5 1864.5Q448.5 1819.0 429.5 1793.0Q411.5 1765.0 380.0 1744.5Q348.5 1724.0 296.5 1709.0L298.5 1684.0Q335.5 1687.0 387.5 1689.5Q439.5 1692.0 466.5 1692.0Q506.5 1692.0 530.5 1672.0Q557.5 1647.0 576.5 1562.0Q595.5 1477.0 608.0 1316.5Q620.5 1156.0 628.5 906.0H528.5Q503.5 1113.0 449.0 1311.5Q394.5 1510.0 295.5 1686.0Q196.5 1862.0 38.5 2002.0L20.5 1985.0Q131.5 1776.0 188.0 1532.5Q244.5 1289.0 261.0 1034.5Q277.5 780.0 270.5 539.0H61.5L44.5 482.0H327.5V54.0L689.5 83.0Q686.5 101.0 674.0 114.5Q661.5 128.0 624.5 134.0V482.0L753.5 304.0L905.5 433.0Q940.5 345.0 970.0 246.0Q999.5 147.0 1019.5 46.0ZM1484.5 1451.0V1254.0H1308.5V1451.0ZM1484.5 1000.0H1308.5V1197.0H1484.5Z" fill="black"></path></svg>